<?xml version="1.0" encoding="UTF-8"?>
<svg xmlns="http://www.w3.org/2000/svg"
 width="32" height="32" viewBox="0 0 1396.000000 1924.000000"
 preserveAspectRatio="xMidYMid meet">

<g transform="translate(0.000000,1924.000000) scale(0.100000,-0.100000)"
fill="#000000" stroke="none">
<path d="M5152 19230 c-29 -4 -68 -11 -87 -14 l-35 -7 0 -291 0 -291 38 7 c20
4 100 9 177 13 234 9 417 -23 585 -104 79 -38 108 -59 181 -132 77 -77 93
-100 142 -202 60 -122 87 -210 114 -360 15 -86 17 -301 20 -2426 l4 -2333
-2076 0 -2075 0 0 -445 0 -445 2075 0 2075 0 -3 -5347 c-3 -4980 -4 -5355 -20
-5443 -89 -499 -318 -733 -771 -790 -98 -13 -395 -9 -443 6 l-23 6 0 -290 c0
-246 2 -291 15 -296 47 -17 208 -28 374 -24 199 5 339 29 496 85 414 148 714
461 855 892 37 113 75 298 90 435 6 55 12 101 14 103 2 2 6 -38 10 -89 9 -129
50 -321 96 -461 166 -498 536 -825 1058 -938 126 -27 418 -37 558 -19 53 6
103 14 111 17 10 4 13 62 13 295 l0 290 -27 -6 c-60 -14 -359 -18 -445 -7
-475 64 -720 336 -777 863 -8 67 -11 1765 -11 5408 l0 5310 2180 0 2180 0 0
445 0 445 -2180 0 -2180 0 3 2358 c3 2133 5 2364 20 2435 40 193 83 303 162
423 115 173 278 273 521 320 97 19 352 25 482 11 l72 -7 0 289 0 289 -67 13
c-46 10 -139 14 -283 13 -236 0 -332 -14 -513 -75 -417 -139 -725 -445 -870
-864 -58 -167 -106 -413 -107 -539 0 -75 -7 -52 -20 64 -36 337 -139 632 -297
851 -114 159 -307 321 -489 412 -101 51 -256 103 -381 128 -118 24 -439 35
-541 19z"/>
<path d="M726 13329 c-353 -48 -641 -318 -712 -668 -12 -64 -15 -114 -11 -200
10 -242 115 -449 305 -607 74 -61 214 -134 307 -159 92 -25 284 -31 378 -11
331 68 587 321 658 651 20 94 15 275 -10 369 -95 358 -396 606 -761 629 -47 3
-116 1 -154 -4z"/>
<path d="M13017 13329 c-332 -45 -611 -296 -698 -625 -27 -104 -29 -278 -4
-383 90 -382 424 -651 807 -651 634 0 1033 657 742 1220 -82 160 -249 314
-413 380 -132 54 -303 77 -434 59z"/>
</g>
</svg>
